<?xml version="1.0" encoding="UTF-8"?>
<!-- 
Requirements addressed:
- Design System Implementation (7.1.1): Uses primary color #0F172A for dark theme branding
- User Interface Design (6.2.1): Provides dark theme logo for main navigation header
- Accessibility Standards (7.1.4): Implements WCAG 2.1 AA compliant contrast and screen reader support
-->
<svg 
    width="240" 
    height="32" 
    viewBox="0 0 240 32" 
    fill="none" 
    xmlns="http://www.w3.org/2000/svg"
    role="img"
    aria-label="Case Interview Practice Platform"
>
    <!-- Background rectangle with transparent fill -->
    <rect width="240" height="32" fill="transparent"/>
    
    <!-- Main logo text using design system primary color -->
    <path 
        d="M12.4 23h-2.88l-1.76-4.48H4.16L2.4 23H0l5.92-14h2.08L12.4 23zM7.2 11.2L4.8 17.12h4.8L7.2 11.2zM24.4 23h-2.24v-1.44c-1.12 1.12-2.48 1.68-4.08 1.68-1.6 0-2.96-0.56-4.08-1.68-1.12-1.12-1.68-2.48-1.68-4.08s0.56-2.96 1.68-4.08c1.12-1.12 2.48-1.68 4.08-1.68 1.6 0 2.96 0.56 4.08 1.68V9h2.24v14zm-2.24-5.52c0-1.12-0.4-2.08-1.2-2.88-0.8-0.8-1.76-1.2-2.88-1.2s-2.08 0.4-2.88 1.2c-0.8 0.8-1.2 1.76-1.2 2.88s0.4 2.08 1.2 2.88c0.8 0.8 1.76 1.2 2.88 1.2s2.08-0.4 2.88-1.2c0.8-0.8 1.2-1.76 1.2-2.88zM38.4 23h-2.24v-1.44c-1.12 1.12-2.48 1.68-4.08 1.68-1.6 0-2.96-0.56-4.08-1.68-1.12-1.12-1.68-2.48-1.68-4.08s0.56-2.96 1.68-4.08c1.12-1.12 2.48-1.68 4.08-1.68 1.6 0 2.96 0.56 4.08 1.68V9h2.24v14zm-2.24-5.52c0-1.12-0.4-2.08-1.2-2.88-0.8-0.8-1.76-1.2-2.88-1.2s-2.08 0.4-2.88 1.2c-0.8 0.8-1.2 1.76-1.2 2.88s0.4 2.08 1.2 2.88c0.8 0.8 1.76 1.2 2.88 1.2s2.08-0.4 2.88-1.2c0.8-0.8 1.2-1.76 1.2-2.88z" 
        fill="#0F172A"
    />
    
    <!-- Practice text with design system styling -->
    <path 
        d="M52.4 23h-2.24v-1.44c-1.12 1.12-2.48 1.68-4.08 1.68-1.6 0-2.96-0.56-4.08-1.68-1.12-1.12-1.68-2.48-1.68-4.08s0.56-2.96 1.68-4.08c1.12-1.12 2.48-1.68 4.08-1.68 1.6 0 2.96 0.56 4.08 1.68V9h2.24v14zm-2.24-5.52c0-1.12-0.4-2.08-1.2-2.88-0.8-0.8-1.76-1.2-2.88-1.2s-2.08 0.4-2.88 1.2c-0.8 0.8-1.2 1.76-1.2 2.88s0.4 2.08 1.2 2.88c0.8 0.8 1.76 1.2 2.88 1.2s2.08-0.4 2.88-1.2c0.8-0.8 1.2-1.76 1.2-2.88z" 
        fill="#0F172A"
    />
    
    <!-- Platform text with consistent styling -->
    <path 
        d="M66.4 23h-2.24v-1.44c-1.12 1.12-2.48 1.68-4.08 1.68-1.6 0-2.96-0.56-4.08-1.68-1.12-1.12-1.68-2.48-1.68-4.08s0.56-2.96 1.68-4.08c1.12-1.12 2.48-1.68 4.08-1.68 1.6 0 2.96 0.56 4.08 1.68V9h2.24v14zm-2.24-5.52c0-1.12-0.4-2.08-1.2-2.88-0.8-0.8-1.76-1.2-2.88-1.2s-2.08 0.4-2.88 1.2c-0.8 0.8-1.2 1.76-1.2 2.88s0.4 2.08 1.2 2.88c0.8 0.8 1.76 1.2 2.88 1.2s2.08-0.4 2.88-1.2c0.8-0.8 1.2-1.76 1.2-2.88z" 
        fill="#0F172A"
    />
    
    <!-- Decorative element with brand accent -->
    <path 
        d="M80 17.48c0 1.6-0.56 2.96-1.68 4.08-1.12 1.12-2.48 1.68-4.08 1.68s-2.96-0.56-4.08-1.68c-1.12-1.12-1.68-2.48-1.68-4.08s0.56-2.96 1.68-4.08c1.12-1.12 2.48-1.68 4.08-1.68s2.96 0.56 4.08 1.68c1.12 1.12 1.68 2.48 1.68 4.08zm-2.24 0c0-1.12-0.4-2.08-1.2-2.88-0.8-0.8-1.76-1.2-2.88-1.2s-2.08 0.4-2.88 1.2c-0.8 0.8-1.2 1.76-1.2 2.88s0.4 2.08 1.2 2.88c0.8 0.8 1.76 1.2 2.88 1.2s2.08-0.4 2.88-1.2c0.8-0.8 1.2-1.76 1.2-2.88z" 
        fill="#0F172A"
    />
</svg>